<svg width="36" height="35" viewBox="0 0 36 35" fill="none" xmlns="http://www.w3.org/2000/svg">
<rect width="35.1528" height="35" rx="17.3011" fill="#FD5D69"/>
<path d="M12.8969 14.9154H15.6214M12.8969 17.765H22.8454M26.8346 24.5551L25.4007 21.6027C25.9557 20.7819 26.3668 19.8734 26.6166 18.9158C27.103 17.1143 27.0731 15.2133 26.5306 13.4278C24.569 7.02033 17.8755 7.5086 17.8755 7.5086C17.8755 7.5086 11.0845 7.01176 9.17735 13.5705C8.65833 15.3673 8.65833 17.2733 9.17735 19.07C11.0845 25.6373 17.8755 25.1348 17.8755 25.1348C19.7102 25.1924 21.5236 24.7289 23.1036 23.7985L26.0804 25.2976C26.185 25.3416 26.3004 25.3537 26.412 25.3324C26.5236 25.3111 26.6263 25.2573 26.7071 25.1777C26.7879 25.0982 26.8431 24.9965 26.8658 24.8857C26.8885 24.7749 26.8777 24.6598 26.8346 24.5551Z" stroke="#FFFDF9" stroke-width="1.42768" stroke-linecap="round" stroke-linejoin="round"/>
</svg>
