<svg width="36" height="35" viewBox="0 0 36 35" fill="none" xmlns="http://www.w3.org/2000/svg">
<rect width="35.1966" height="35" rx="17.3011" fill="#FD5D69"/>
<path d="M8.9005 13.1689C9.60899 11.1083 11.031 9.36841 12.9101 8.26311C14.7892 7.15781 17.0017 6.75979 19.1486 7.14087C21.2954 7.52195 23.2353 8.65702 24.6185 10.3414C26.0017 12.0258 26.7844 14.4113 26.7393 16.5897M29.1629 14.0557L27.6124 16.0962C27.4936 16.252 27.3403 16.3783 27.1647 16.4653C26.989 16.5522 26.7956 16.5973 26.5996 16.5973C26.4035 16.5973 26.2102 16.5522 26.0345 16.4653C25.8588 16.3783 25.7056 16.252 25.5868 16.0962L24.0363 14.0557M26.052 22.4619C25.211 24.4225 23.7101 26.0273 21.8094 26.9984C19.9087 27.9694 17.7279 28.2453 15.6449 27.7784C13.562 27.3115 11.7081 26.1311 10.4047 24.4418C9.10116 22.7526 8.43013 20.5473 8.5079 18.4156M6.03369 20.9422L7.56769 18.9246C7.6876 18.7656 7.84281 18.6366 8.02114 18.5477C8.19948 18.4589 8.39605 18.4126 8.59533 18.4126C8.7946 18.4126 8.99118 18.4589 9.16951 18.5477C9.34784 18.6366 9.50305 18.7656 9.62296 18.9246L11.157 20.9422" stroke="#FFFDF9" stroke-width="1.43" stroke-linecap="round" stroke-linejoin="round"/>
</svg>
